<mxfile host="app.diagrams.net" modified="2024-01-04T08:53:08.041Z" agent="Mozilla/5.0 (Windows NT 10.0; Win64; x64) AppleWebKit/537.36 (KHTML, like Gecko) Chrome/120.0.0.0 Safari/537.36 Edg/120.0.0.0" etag="JlZWw1dK9SQ1LK0j3NdF" version="22.1.16" type="github">
  <diagram name="페이지-1" id="Esn_sD6kCk11uCRzCDZe">
    <mxGraphModel dx="975" dy="1233" grid="1" gridSize="10" guides="1" tooltips="1" connect="1" arrows="1" fold="1" page="0" pageScale="1" pageWidth="827" pageHeight="1169" math="0" shadow="0">
      <root>
        <mxCell id="0" />
        <mxCell id="1" parent="0" />
        <mxCell id="1b6pwHD0uucCl0AeFwHe-2" value="교수" style="whiteSpace=wrap;html=1;align=center;fontSize=16;" vertex="1" parent="1">
          <mxGeometry x="-10" y="-78" width="100" height="40" as="geometry" />
        </mxCell>
        <mxCell id="1b6pwHD0uucCl0AeFwHe-3" value="과목" style="whiteSpace=wrap;html=1;align=center;fontSize=16;" vertex="1" parent="1">
          <mxGeometry x="-10" y="160" width="100" height="40" as="geometry" />
        </mxCell>
        <mxCell id="1b6pwHD0uucCl0AeFwHe-4" value="학생" style="whiteSpace=wrap;html=1;align=center;fontSize=16;" vertex="1" parent="1">
          <mxGeometry x="290" y="160" width="100" height="40" as="geometry" />
        </mxCell>
        <mxCell id="1b6pwHD0uucCl0AeFwHe-5" value="학과" style="whiteSpace=wrap;html=1;align=center;fontSize=16;" vertex="1" parent="1">
          <mxGeometry x="290" y="-80" width="100" height="40" as="geometry" />
        </mxCell>
        <mxCell id="1b6pwHD0uucCl0AeFwHe-6" value="교수코드" style="ellipse;whiteSpace=wrap;html=1;align=center;fontSize=16;fontStyle=4" vertex="1" parent="1">
          <mxGeometry x="-140" y="-120" width="100" height="40" as="geometry" />
        </mxCell>
        <mxCell id="1b6pwHD0uucCl0AeFwHe-7" value="교수이름" style="ellipse;whiteSpace=wrap;html=1;align=center;fontSize=16;" vertex="1" parent="1">
          <mxGeometry x="-140" y="-38" width="100" height="40" as="geometry" />
        </mxCell>
        <mxCell id="1b6pwHD0uucCl0AeFwHe-8" value="" style="endArrow=none;html=1;rounded=0;fontSize=12;startSize=8;endSize=8;curved=1;exitX=1;exitY=0.5;exitDx=0;exitDy=0;entryX=0;entryY=0.5;entryDx=0;entryDy=0;" edge="1" parent="1" source="1b6pwHD0uucCl0AeFwHe-7" target="1b6pwHD0uucCl0AeFwHe-2">
          <mxGeometry relative="1" as="geometry">
            <mxPoint x="-30" y="2" as="sourcePoint" />
            <mxPoint x="130" y="2" as="targetPoint" />
          </mxGeometry>
        </mxCell>
        <mxCell id="1b6pwHD0uucCl0AeFwHe-9" value="" style="endArrow=none;html=1;rounded=0;fontSize=12;startSize=8;endSize=8;curved=1;exitX=1;exitY=0.5;exitDx=0;exitDy=0;entryX=0;entryY=0.5;entryDx=0;entryDy=0;" edge="1" parent="1" source="1b6pwHD0uucCl0AeFwHe-6" target="1b6pwHD0uucCl0AeFwHe-2">
          <mxGeometry relative="1" as="geometry">
            <mxPoint x="-30" y="-8" as="sourcePoint" />
            <mxPoint x="3" y="-48" as="targetPoint" />
          </mxGeometry>
        </mxCell>
        <mxCell id="1b6pwHD0uucCl0AeFwHe-10" value="과목코드" style="ellipse;whiteSpace=wrap;html=1;align=center;fontSize=16;fontStyle=4" vertex="1" parent="1">
          <mxGeometry x="-140" y="90" width="100" height="40" as="geometry" />
        </mxCell>
        <mxCell id="1b6pwHD0uucCl0AeFwHe-11" value="" style="endArrow=none;html=1;rounded=0;fontSize=12;startSize=8;endSize=8;curved=1;exitX=1;exitY=0.5;exitDx=0;exitDy=0;entryX=0;entryY=0.5;entryDx=0;entryDy=0;" edge="1" parent="1" source="1b6pwHD0uucCl0AeFwHe-10" target="1b6pwHD0uucCl0AeFwHe-3">
          <mxGeometry relative="1" as="geometry">
            <mxPoint x="60" y="240" as="sourcePoint" />
            <mxPoint x="-10" y="190" as="targetPoint" />
          </mxGeometry>
        </mxCell>
        <mxCell id="1b6pwHD0uucCl0AeFwHe-13" value="시작일" style="ellipse;whiteSpace=wrap;html=1;align=center;fontSize=16;" vertex="1" parent="1">
          <mxGeometry x="-140" y="190" width="100" height="40" as="geometry" />
        </mxCell>
        <mxCell id="1b6pwHD0uucCl0AeFwHe-14" value="" style="endArrow=none;html=1;rounded=0;fontSize=12;startSize=8;endSize=8;curved=1;exitX=1;exitY=0.5;exitDx=0;exitDy=0;entryX=0;entryY=0.5;entryDx=0;entryDy=0;" edge="1" parent="1" source="1b6pwHD0uucCl0AeFwHe-13" target="1b6pwHD0uucCl0AeFwHe-3">
          <mxGeometry relative="1" as="geometry">
            <mxPoint x="70" y="250" as="sourcePoint" />
            <mxPoint y="190" as="targetPoint" />
          </mxGeometry>
        </mxCell>
        <mxCell id="1b6pwHD0uucCl0AeFwHe-15" value="과목이름" style="ellipse;whiteSpace=wrap;html=1;align=center;fontSize=16;" vertex="1" parent="1">
          <mxGeometry x="-140" y="140" width="100" height="40" as="geometry" />
        </mxCell>
        <mxCell id="1b6pwHD0uucCl0AeFwHe-16" value="" style="endArrow=none;html=1;rounded=0;fontSize=12;startSize=8;endSize=8;curved=1;exitX=1;exitY=0.5;exitDx=0;exitDy=0;entryX=0;entryY=0.5;entryDx=0;entryDy=0;" edge="1" parent="1" source="1b6pwHD0uucCl0AeFwHe-15" target="1b6pwHD0uucCl0AeFwHe-3">
          <mxGeometry relative="1" as="geometry">
            <mxPoint x="70" y="360" as="sourcePoint" />
            <mxPoint y="300" as="targetPoint" />
          </mxGeometry>
        </mxCell>
        <mxCell id="1b6pwHD0uucCl0AeFwHe-17" value="종료일" style="ellipse;whiteSpace=wrap;html=1;align=center;fontSize=16;" vertex="1" parent="1">
          <mxGeometry x="-140" y="240" width="100" height="40" as="geometry" />
        </mxCell>
        <mxCell id="1b6pwHD0uucCl0AeFwHe-18" value="" style="endArrow=none;html=1;rounded=0;fontSize=12;startSize=8;endSize=8;curved=1;exitX=1;exitY=0.5;exitDx=0;exitDy=0;entryX=0;entryY=0.5;entryDx=0;entryDy=0;" edge="1" parent="1" source="1b6pwHD0uucCl0AeFwHe-17" target="1b6pwHD0uucCl0AeFwHe-3">
          <mxGeometry relative="1" as="geometry">
            <mxPoint x="180" y="460" as="sourcePoint" />
            <mxPoint x="110" y="400" as="targetPoint" />
          </mxGeometry>
        </mxCell>
        <mxCell id="1b6pwHD0uucCl0AeFwHe-19" value="학과코드" style="ellipse;whiteSpace=wrap;html=1;align=center;fontSize=16;fontStyle=4" vertex="1" parent="1">
          <mxGeometry x="480" y="-120" width="100" height="40" as="geometry" />
        </mxCell>
        <mxCell id="1b6pwHD0uucCl0AeFwHe-20" value="" style="endArrow=none;html=1;rounded=0;fontSize=12;startSize=8;endSize=8;curved=1;entryX=0;entryY=0.5;entryDx=0;entryDy=0;exitX=1;exitY=0.5;exitDx=0;exitDy=0;" edge="1" parent="1" source="1b6pwHD0uucCl0AeFwHe-5" target="1b6pwHD0uucCl0AeFwHe-19">
          <mxGeometry relative="1" as="geometry">
            <mxPoint x="260" y="240" as="sourcePoint" />
            <mxPoint x="420" y="240" as="targetPoint" />
          </mxGeometry>
        </mxCell>
        <mxCell id="1b6pwHD0uucCl0AeFwHe-21" value="학과명" style="ellipse;whiteSpace=wrap;html=1;align=center;fontSize=16;" vertex="1" parent="1">
          <mxGeometry x="480" y="-50" width="100" height="40" as="geometry" />
        </mxCell>
        <mxCell id="1b6pwHD0uucCl0AeFwHe-22" value="" style="endArrow=none;html=1;rounded=0;fontSize=12;startSize=8;endSize=8;curved=1;entryX=0;entryY=0.5;entryDx=0;entryDy=0;exitX=1;exitY=0.5;exitDx=0;exitDy=0;" edge="1" target="1b6pwHD0uucCl0AeFwHe-21" parent="1" source="1b6pwHD0uucCl0AeFwHe-5">
          <mxGeometry relative="1" as="geometry">
            <mxPoint x="400" y="-50" as="sourcePoint" />
            <mxPoint x="420" y="300" as="targetPoint" />
          </mxGeometry>
        </mxCell>
        <mxCell id="1b6pwHD0uucCl0AeFwHe-23" value="학번" style="ellipse;whiteSpace=wrap;html=1;align=center;fontSize=16;fontStyle=4" vertex="1" parent="1">
          <mxGeometry x="477" y="110" width="100" height="40" as="geometry" />
        </mxCell>
        <mxCell id="1b6pwHD0uucCl0AeFwHe-24" value="" style="endArrow=none;html=1;rounded=0;fontSize=12;startSize=8;endSize=8;curved=1;entryX=0;entryY=0.5;entryDx=0;entryDy=0;exitX=1;exitY=0.5;exitDx=0;exitDy=0;" edge="1" target="1b6pwHD0uucCl0AeFwHe-23" parent="1" source="1b6pwHD0uucCl0AeFwHe-4">
          <mxGeometry relative="1" as="geometry">
            <mxPoint x="390" y="182" as="sourcePoint" />
            <mxPoint x="417" y="480" as="targetPoint" />
          </mxGeometry>
        </mxCell>
        <mxCell id="1b6pwHD0uucCl0AeFwHe-25" value="" style="endArrow=none;html=1;rounded=0;fontSize=12;startSize=8;endSize=8;curved=1;entryX=0;entryY=0.5;entryDx=0;entryDy=0;exitX=1;exitY=0.5;exitDx=0;exitDy=0;" edge="1" target="1b6pwHD0uucCl0AeFwHe-26" parent="1" source="1b6pwHD0uucCl0AeFwHe-4">
          <mxGeometry relative="1" as="geometry">
            <mxPoint x="390" y="182" as="sourcePoint" />
            <mxPoint x="417" y="540" as="targetPoint" />
          </mxGeometry>
        </mxCell>
        <mxCell id="1b6pwHD0uucCl0AeFwHe-26" value="이름" style="ellipse;whiteSpace=wrap;html=1;align=center;fontSize=16;" vertex="1" parent="1">
          <mxGeometry x="477" y="160" width="100" height="40" as="geometry" />
        </mxCell>
        <mxCell id="1b6pwHD0uucCl0AeFwHe-28" value="키" style="ellipse;whiteSpace=wrap;html=1;align=center;fontSize=16;" vertex="1" parent="1">
          <mxGeometry x="477" y="215" width="100" height="40" as="geometry" />
        </mxCell>
        <mxCell id="1b6pwHD0uucCl0AeFwHe-29" value="" style="endArrow=none;html=1;rounded=0;fontSize=12;startSize=8;endSize=8;curved=1;entryX=0;entryY=0.5;entryDx=0;entryDy=0;exitX=1;exitY=0.5;exitDx=0;exitDy=0;" edge="1" target="1b6pwHD0uucCl0AeFwHe-28" parent="1" source="1b6pwHD0uucCl0AeFwHe-4">
          <mxGeometry relative="1" as="geometry">
            <mxPoint x="390" y="165" as="sourcePoint" />
            <mxPoint x="417" y="595" as="targetPoint" />
          </mxGeometry>
        </mxCell>
        <mxCell id="1b6pwHD0uucCl0AeFwHe-30" value="수강" style="shape=rhombus;perimeter=rhombusPerimeter;whiteSpace=wrap;html=1;align=center;fontSize=16;" vertex="1" parent="1">
          <mxGeometry x="140" y="152.5" width="100" height="55" as="geometry" />
        </mxCell>
        <mxCell id="1b6pwHD0uucCl0AeFwHe-31" value="" style="endArrow=none;html=1;rounded=0;fontSize=12;startSize=8;endSize=8;curved=1;entryX=0;entryY=0.5;entryDx=0;entryDy=0;" edge="1" parent="1" target="1b6pwHD0uucCl0AeFwHe-30">
          <mxGeometry relative="1" as="geometry">
            <mxPoint x="90" y="180" as="sourcePoint" />
            <mxPoint x="130" y="180" as="targetPoint" />
          </mxGeometry>
        </mxCell>
        <mxCell id="1b6pwHD0uucCl0AeFwHe-32" value="" style="endArrow=none;html=1;rounded=0;fontSize=12;startSize=8;endSize=8;curved=1;" edge="1" parent="1" source="1b6pwHD0uucCl0AeFwHe-30" target="1b6pwHD0uucCl0AeFwHe-4">
          <mxGeometry relative="1" as="geometry">
            <mxPoint x="240" y="180" as="sourcePoint" />
            <mxPoint x="290" y="180" as="targetPoint" />
          </mxGeometry>
        </mxCell>
        <mxCell id="1b6pwHD0uucCl0AeFwHe-33" value="N" style="text;strokeColor=none;fillColor=none;spacingLeft=4;spacingRight=4;overflow=hidden;rotatable=0;points=[[0,0.5],[1,0.5]];portConstraint=eastwest;fontSize=16;whiteSpace=wrap;html=1;" vertex="1" parent="1">
          <mxGeometry x="130" y="150" width="30" height="30" as="geometry" />
        </mxCell>
        <mxCell id="1b6pwHD0uucCl0AeFwHe-34" value="M" style="text;strokeColor=none;fillColor=none;spacingLeft=4;spacingRight=4;overflow=hidden;rotatable=0;points=[[0,0.5],[1,0.5]];portConstraint=eastwest;fontSize=16;whiteSpace=wrap;html=1;" vertex="1" parent="1">
          <mxGeometry x="230" y="150" width="40" height="30" as="geometry" />
        </mxCell>
        <mxCell id="1b6pwHD0uucCl0AeFwHe-35" value="1" style="text;strokeColor=none;fillColor=none;spacingLeft=4;spacingRight=4;overflow=hidden;rotatable=0;points=[[0,0.5],[1,0.5]];portConstraint=eastwest;fontSize=16;whiteSpace=wrap;html=1;" vertex="1" parent="1">
          <mxGeometry x="230" y="-90" width="40" height="30" as="geometry" />
        </mxCell>
        <mxCell id="1b6pwHD0uucCl0AeFwHe-36" value="1" style="text;strokeColor=none;fillColor=none;spacingLeft=4;spacingRight=4;overflow=hidden;rotatable=0;points=[[0,0.5],[1,0.5]];portConstraint=eastwest;fontSize=16;whiteSpace=wrap;html=1;" vertex="1" parent="1">
          <mxGeometry x="90" y="150" width="40" height="30" as="geometry" />
        </mxCell>
        <mxCell id="1b6pwHD0uucCl0AeFwHe-37" value="소속" style="shape=rhombus;perimeter=rhombusPerimeter;whiteSpace=wrap;html=1;align=center;fontSize=16;" vertex="1" parent="1">
          <mxGeometry x="290" y="30" width="100" height="50" as="geometry" />
        </mxCell>
        <mxCell id="1b6pwHD0uucCl0AeFwHe-38" value="" style="endArrow=none;html=1;rounded=0;fontSize=12;startSize=8;endSize=8;curved=1;entryX=0.5;entryY=1;entryDx=0;entryDy=0;exitX=0.5;exitY=0;exitDx=0;exitDy=0;" edge="1" parent="1" source="1b6pwHD0uucCl0AeFwHe-37" target="1b6pwHD0uucCl0AeFwHe-5">
          <mxGeometry relative="1" as="geometry">
            <mxPoint x="90" y="230" as="sourcePoint" />
            <mxPoint x="250" y="230" as="targetPoint" />
          </mxGeometry>
        </mxCell>
        <mxCell id="1b6pwHD0uucCl0AeFwHe-39" value="" style="endArrow=none;html=1;rounded=0;fontSize=12;startSize=8;endSize=8;curved=1;entryX=0.5;entryY=1;entryDx=0;entryDy=0;exitX=0.5;exitY=0;exitDx=0;exitDy=0;" edge="1" parent="1" source="1b6pwHD0uucCl0AeFwHe-4" target="1b6pwHD0uucCl0AeFwHe-37">
          <mxGeometry relative="1" as="geometry">
            <mxPoint x="343" y="140" as="sourcePoint" />
            <mxPoint x="342.5" y="76" as="targetPoint" />
          </mxGeometry>
        </mxCell>
        <mxCell id="1b6pwHD0uucCl0AeFwHe-41" value="N" style="text;strokeColor=none;fillColor=none;spacingLeft=4;spacingRight=4;overflow=hidden;rotatable=0;points=[[0,0.5],[1,0.5]];portConstraint=eastwest;fontSize=16;whiteSpace=wrap;html=1;" vertex="1" parent="1">
          <mxGeometry x="340" y="70" width="40" height="30" as="geometry" />
        </mxCell>
        <mxCell id="1b6pwHD0uucCl0AeFwHe-42" value="1" style="text;strokeColor=none;fillColor=none;spacingLeft=4;spacingRight=4;overflow=hidden;rotatable=0;points=[[0,0.5],[1,0.5]];portConstraint=eastwest;fontSize=16;whiteSpace=wrap;html=1;" vertex="1" parent="1">
          <mxGeometry x="340" width="40" height="30" as="geometry" />
        </mxCell>
        <mxCell id="1b6pwHD0uucCl0AeFwHe-43" value="소속" style="shape=rhombus;perimeter=rhombusPerimeter;whiteSpace=wrap;html=1;align=center;fontSize=16;" vertex="1" parent="1">
          <mxGeometry x="140" y="-85" width="100" height="50" as="geometry" />
        </mxCell>
        <mxCell id="1b6pwHD0uucCl0AeFwHe-44" value="" style="endArrow=none;html=1;rounded=0;fontSize=12;startSize=8;endSize=8;curved=1;exitX=1;exitY=0.5;exitDx=0;exitDy=0;entryX=0;entryY=0.5;entryDx=0;entryDy=0;" edge="1" parent="1" source="1b6pwHD0uucCl0AeFwHe-2" target="1b6pwHD0uucCl0AeFwHe-43">
          <mxGeometry relative="1" as="geometry">
            <mxPoint x="50" y="-10" as="sourcePoint" />
            <mxPoint x="210" y="-10" as="targetPoint" />
          </mxGeometry>
        </mxCell>
        <mxCell id="1b6pwHD0uucCl0AeFwHe-45" value="" style="endArrow=none;html=1;rounded=0;fontSize=12;startSize=8;endSize=8;curved=1;exitX=1;exitY=0.5;exitDx=0;exitDy=0;entryX=0;entryY=0.5;entryDx=0;entryDy=0;" edge="1" parent="1" source="1b6pwHD0uucCl0AeFwHe-43" target="1b6pwHD0uucCl0AeFwHe-5">
          <mxGeometry relative="1" as="geometry">
            <mxPoint x="250" y="-60.5" as="sourcePoint" />
            <mxPoint x="280" y="-60" as="targetPoint" />
          </mxGeometry>
        </mxCell>
        <mxCell id="1b6pwHD0uucCl0AeFwHe-46" style="edgeStyle=none;curved=1;rounded=0;orthogonalLoop=1;jettySize=auto;html=1;entryX=0;entryY=0.5;entryDx=0;entryDy=0;fontSize=12;startSize=8;endSize=8;" edge="1" parent="1" source="1b6pwHD0uucCl0AeFwHe-5" target="1b6pwHD0uucCl0AeFwHe-5">
          <mxGeometry relative="1" as="geometry" />
        </mxCell>
        <mxCell id="1b6pwHD0uucCl0AeFwHe-47" value="N" style="text;strokeColor=none;fillColor=none;spacingLeft=4;spacingRight=4;overflow=hidden;rotatable=0;points=[[0,0.5],[1,0.5]];portConstraint=eastwest;fontSize=16;whiteSpace=wrap;html=1;" vertex="1" parent="1">
          <mxGeometry x="130" y="-90" width="40" height="30" as="geometry" />
        </mxCell>
        <mxCell id="1b6pwHD0uucCl0AeFwHe-48" value="" style="endArrow=none;html=1;rounded=0;fontSize=12;startSize=8;endSize=8;curved=1;exitX=0.5;exitY=0;exitDx=0;exitDy=0;" edge="1" source="1b6pwHD0uucCl0AeFwHe-49" parent="1" target="1b6pwHD0uucCl0AeFwHe-2">
          <mxGeometry relative="1" as="geometry">
            <mxPoint x="-210" y="220" as="sourcePoint" />
            <mxPoint x="40" y="-50" as="targetPoint" />
          </mxGeometry>
        </mxCell>
        <mxCell id="1b6pwHD0uucCl0AeFwHe-49" value="소속" style="shape=rhombus;perimeter=rhombusPerimeter;whiteSpace=wrap;html=1;align=center;fontSize=16;" vertex="1" parent="1">
          <mxGeometry x="-10" y="20" width="100" height="50" as="geometry" />
        </mxCell>
        <mxCell id="1b6pwHD0uucCl0AeFwHe-50" value="" style="endArrow=none;html=1;rounded=0;fontSize=12;startSize=8;endSize=8;curved=1;entryX=0.5;entryY=1;entryDx=0;entryDy=0;exitX=0.5;exitY=0;exitDx=0;exitDy=0;" edge="1" target="1b6pwHD0uucCl0AeFwHe-49" parent="1" source="1b6pwHD0uucCl0AeFwHe-3">
          <mxGeometry relative="1" as="geometry">
            <mxPoint x="40" y="150" as="sourcePoint" />
            <mxPoint x="42.5" y="66" as="targetPoint" />
          </mxGeometry>
        </mxCell>
        <mxCell id="1b6pwHD0uucCl0AeFwHe-51" value="1" style="text;strokeColor=none;fillColor=none;spacingLeft=4;spacingRight=4;overflow=hidden;rotatable=0;points=[[0,0.5],[1,0.5]];portConstraint=eastwest;fontSize=16;whiteSpace=wrap;html=1;" vertex="1" parent="1">
          <mxGeometry x="40" y="-5" width="40" height="30" as="geometry" />
        </mxCell>
        <mxCell id="1b6pwHD0uucCl0AeFwHe-52" value="N" style="text;strokeColor=none;fillColor=none;spacingLeft=4;spacingRight=4;overflow=hidden;rotatable=0;points=[[0,0.5],[1,0.5]];portConstraint=eastwest;fontSize=16;whiteSpace=wrap;html=1;" vertex="1" parent="1">
          <mxGeometry x="40" y="65" width="40" height="30" as="geometry" />
        </mxCell>
      </root>
    </mxGraphModel>
  </diagram>
</mxfile>
